<svg viewBox="0 0 306 110" xmlns="http://www.w3.org/2000/svg">
<path fill-rule="evenodd" clip-rule="evenodd" d="M4.95101 77H0V109H21V104.172H4.95101V77Z" fill="#D9D900"/>
<path fill-rule="evenodd" clip-rule="evenodd" d="M32.0215 94.7929H47.6096V90.0427H32.0215V80.8972H47.9468V76H27V109H48V104.068H32.0215V94.7929Z" fill="#D9D900"/>
<path fill-rule="evenodd" clip-rule="evenodd" d="M60.8451 86.4961L69.7177 98.9115H72.4888L81.2324 86.4961V109H86V77H82.1876L71.1291 92.5664L59.9329 77H56V109H60.8451V86.4961Z" fill="#D9D900"/>
<path fill-rule="evenodd" clip-rule="evenodd" d="M94 92.9915C94 97.6727 95.9599 101.878 98.9817 104.962C102.029 108.097 106.295 110 110.94 110C115.654 110 119.919 108.097 123.027 104.962C126.04 101.878 128 97.6727 128 92.9915C128 88.3103 126.04 84.1049 123.027 81.021C119.919 77.9285 115.654 76 110.94 76C106.295 76 102.029 77.9285 98.9817 81.021C95.9599 84.1049 94 88.3103 94 92.9915ZM123.122 92.9915C123.122 96.3983 121.732 99.3803 119.582 101.547C117.329 103.773 114.22 105.149 110.94 105.149C107.667 105.149 104.637 103.773 102.453 101.547C100.268 99.3803 98.8867 96.3473 98.8867 92.9915C98.8867 89.6357 100.268 86.6112 102.453 84.4363C104.637 82.2104 107.667 80.8341 110.94 80.8341C114.22 80.8341 117.329 82.2104 119.582 84.4363C121.732 86.6112 123.122 89.5932 123.122 92.9915Z" fill="#D9D900"/>
<path fill-rule="evenodd" clip-rule="evenodd" d="M140.866 109V86.7048L157.151 109H161V77.0429H156.186V99.5615L139.763 77.0429L136 77V109H140.866Z" fill="#D9D900"/>
<path fill-rule="evenodd" clip-rule="evenodd" d="M169 93.0429C169 97.7027 170.905 101.933 173.753 105.006C176.653 108.078 180.745 110 185.266 110C193.013 110 199.104 104.817 201 97.1706H196.299C194.583 102.268 190.302 105.203 185.266 105.203C182.075 105.203 179.175 103.804 177.081 101.599C174.988 99.3847 173.658 96.4069 173.658 93.0429C173.658 89.5846 174.988 86.5982 177.081 84.3927C179.175 82.1787 182.075 80.7885 185.266 80.7885C190.165 80.7885 194.248 83.3372 196.007 88.3831H200.768C198.864 80.7885 192.867 76 185.266 76C180.745 76 176.653 77.948 173.753 80.9773C170.905 84.0581 169 88.2802 169 93.0429Z" fill="#242415"/>
<path fill-rule="evenodd" clip-rule="evenodd" d="M208 92.9915C208 97.6727 209.96 101.878 212.973 104.962C216.021 108.097 220.286 110 224.931 110C229.654 110 233.91 108.097 237.018 104.962C240.031 101.878 242 97.6727 242 92.9915C242 88.3103 240.031 84.1049 237.018 81.021C233.91 77.9285 229.654 76 224.931 76C220.286 76 216.021 77.9285 212.973 81.021C209.96 84.1049 208 88.3103 208 92.9915ZM237.113 92.9915C237.113 96.3983 235.732 99.3803 233.573 101.547C231.329 103.773 228.212 105.149 224.931 105.149C221.667 105.149 218.628 103.773 216.453 101.547C214.268 99.3803 212.878 96.3473 212.878 92.9915C212.878 89.6357 214.268 86.6112 216.453 84.4363C218.628 82.2104 221.667 80.8341 224.931 80.8341C228.212 80.8341 231.329 82.2104 233.573 84.4363C235.732 86.6112 237.113 89.5932 237.113 92.9915Z" fill="#242415"/>
<path fill-rule="evenodd" clip-rule="evenodd" d="M250 76V110H261.71C272.498 110 278 101.584 278 93.1236C278 84.6634 272.498 76 261.71 76H250ZM254.829 105.116V80.9984H261.71C269.299 80.9984 273.214 87.1273 273.214 93.1236C273.214 99.12 269.299 105.116 261.71 105.116H254.829Z" fill="#242415"/>
<path fill-rule="evenodd" clip-rule="evenodd" d="M290.782 94.7929H305.628V90.0427H290.782V80.8972H305.949V76H286V109H306V104.068H290.782V94.7929Z" fill="#242415"/>
<path d="M111 6V8.489H108.541C107.128 8.489 106.422 10.5718 106.422 14.7547V23.2934C106.422 26.3096 105.982 28.6257 105.118 30.285C104.262 31.9184 103.465 32.9987 102.708 33.4914V33.6124C103.506 34.2346 104.312 35.3581 105.159 36.9656C105.998 38.5644 106.422 40.8719 106.422 43.8708V52.3404C106.422 56.4628 107.128 58.5196 108.541 58.5196H111V61H107.801C105.134 61 103.789 58.5196 103.789 53.5503V44.9857C103.789 38.2014 102.534 34.7877 100 34.7877V32.3074C102.534 32.3074 103.789 28.9368 103.789 22.1871V13.5361C103.789 8.51493 105.35 6 108.458 6H111Z" fill="#242415"/>
<path d="M196 6V8.48036H198.459C199.872 8.48036 200.578 10.5632 200.578 14.7461V23.2847C200.578 26.3096 201.018 28.6257 201.882 30.285C202.738 31.9184 203.535 32.9901 204.292 33.4827V33.6037C203.494 34.2346 202.688 35.3495 201.841 36.9569C201.002 38.5558 200.578 40.8719 200.578 43.8708V52.3404C200.578 56.4628 199.872 58.5196 198.459 58.5196H196V61H199.199C201.866 61 203.211 58.5196 203.211 53.5503V44.9857C203.211 38.1928 204.466 34.7877 207 34.7877V32.3074C204.466 32.3074 203.211 28.9282 203.211 22.1871V13.5361C203.211 8.51493 201.65 6 198.542 6H196Z" fill="#242415"/>
<path fill-rule="evenodd" clip-rule="evenodd" d="M164.862 36.3729C162.238 35.6536 159.362 35.1769 156.729 34.4576C156.487 34.7003 156.487 34.215 156.487 34.9343C156.487 35.4109 164.387 45.2213 168.454 50.0138C168.696 50.4905 169.412 50.7245 169.887 50.7245C171.804 50.7245 177.304 43.306 177.304 41.8761C177.304 38.2882 172.046 38.2882 170.604 37.8029C168.696 37.3262 166.537 36.8496 164.862 36.3729ZM178.979 33.019C178.979 30.3931 178.029 25.3666 175.154 23.6853L156.971 32.785L175.396 36.3729C178.262 35.8963 178.979 35.4109 178.979 33.019ZM169.171 12.2023C168.212 11.483 167.021 10.5297 166.537 10.5297C165.821 10.5297 165.104 11.483 164.862 11.9683C162.238 17.9481 155.771 29.6738 155.771 30.1504C155.771 30.8697 158.162 29.6738 160.796 28.2352C165.104 25.8432 169.887 23.6853 173.954 21.2934C174.196 21.0594 174.196 20.8167 174.196 20.0974C174.196 17.7055 172.279 15.0709 169.171 12.2023ZM154.579 36.0089H153.863V45.8193C153.863 46.3046 154.104 53.0037 154.821 56.349C155.063 57.0683 157.454 58.0303 158.413 58.0303C160.321 58.0303 166.063 55.8723 166.063 52.7611C166.063 52.0418 165.588 50.6118 164.871 49.8925C161.521 45.3426 158.888 40.0821 154.579 36.0089ZM152.3 55.751L152.067 36.1303C151.35 36.3729 151.108 36.3729 150.867 36.6069C147.517 40.9141 143.925 45.2213 140.342 49.5285C139.625 50.4905 138.425 52.1631 138.425 52.6398C138.425 56.2277 148 58.6283 149.675 58.6283C151.108 58.6283 152.3 57.4236 152.3 55.751ZM149.312 33.9117C148.354 33.9117 146.921 33.669 146.204 33.669L135.671 34.631H131.846C130.171 34.631 128.738 35.1076 128.738 37.4995C128.738 38.6955 131.129 49.4679 135.671 49.4679C136.154 49.4679 136.396 49.4679 136.629 49.2252C139.979 45.3946 143.087 41.3301 146.437 37.9762C147.396 36.7802 149.554 35.1076 149.554 34.3883C149.554 33.9117 149.554 34.1456 149.312 33.9117ZM149.502 32.7157C149.744 32.733 149.96 32.7417 150.176 32.655C150.029 32.6984 149.865 32.7157 149.675 32.7157H149.502ZM135.559 18.3641C134.833 17.8875 133.884 17.8875 133.158 17.8875C130.534 20.756 129.092 25.7826 129.092 29.1278C129.092 32.4817 132.683 32.239 135.317 32.239C136.033 32.239 139.625 32.005 141.533 31.7624H150.15V31.0431C145.367 26.9785 140.342 22.4287 135.559 18.3641ZM151.462 29.1538C150.029 22.212 150.271 15.9895 147.163 9.29039C145.721 9.29039 144.046 9.29039 143.087 10.0097C142.138 10.4864 136.154 13.5976 136.154 15.7555C136.154 16.4748 147.163 26.5192 151.229 29.8731C151.704 29.3878 151.462 29.1538 151.462 29.1538ZM161.633 8.49308C158.767 7.77377 153.5 7.53977 153.025 7.53977C152.3 7.53977 151.583 7.53978 151.35 7.77377C150.625 8.01643 150.392 8.73574 150.392 9.21239L153.742 28.8331C155.65 27.3945 157.092 23.0873 158.525 20.4614C158.767 19.7421 163.075 12.3236 163.075 10.4084C163.075 9.68904 163.075 9.68904 162.833 9.45505C162.592 8.96973 162.117 8.49308 161.633 8.49308ZM153.5 0C134.997 0 120 15.0016 120 33.4957C120 51.9985 134.997 67 153.5 67C172.003 67 187 51.9985 187 33.4957C187 15.0016 172.003 0 153.5 0ZM183.426 41.1134C182.925 42.7254 182.338 44.32 181.707 45.88C181.12 47.3273 180.421 48.6965 179.385 49.8752C178.375 51.0278 177.14 51.9551 175.957 52.9258C174.705 53.9571 174.066 55.5517 172.935 56.7216C171.873 57.8223 170.285 58.3943 168.972 59.2089C167.703 59.9889 166.563 61.0288 165.147 61.5055C162.246 62.4848 159.19 63.5161 156.177 64.0621C153.077 64.6254 149.425 63.7761 146.316 63.4208C143.286 63.0828 140.411 61.8522 137.786 60.2575C134.704 58.3769 131.552 56.193 129.394 53.2464C127.399 50.5165 126.061 47.3273 124.766 44.2507C124.136 42.7514 123.773 41.1741 123.566 39.5622C123.341 37.8289 122.677 36.5636 122.4 34.8476C121.58 29.7691 122.858 25.3579 124.904 20.6001C125.526 19.1614 126.13 17.6968 126.899 16.3275C127.658 14.9842 128.608 13.7796 129.782 12.7743C130.957 11.769 132.26 10.937 133.443 9.94904C134.635 8.94373 135.61 7.7131 136.793 6.69913C137.959 5.71116 139.297 5.09585 140.765 4.69719C142.31 4.27254 143.908 4.04721 145.436 3.57056C147.024 3.06791 148.561 2.40926 150.176 2.01061C153.5 1.1873 156.936 1.71595 160.191 2.58259C163.455 3.44056 166.701 4.4892 169.602 6.25715C171.053 7.14112 172.417 8.15509 173.764 9.17773C180.36 14.1782 182.778 22.9486 184.004 30.8264C184.548 34.3016 184.462 37.7422 183.426 41.1134Z" fill="#D9D900"/>
</svg>
